<svg width="56" height="56" viewBox="0 0 56 56" fill="none" xmlns="http://www.w3.org/2000/svg">
<rect width="56" height="56" fill="#2C79DE"/>
<path d="M20.7666 38.0479C21.4014 38.0055 22.0107 37.8405 22.5947 37.5527C23.1787 37.2565 23.6484 36.8249 24.0039 36.2578C24.3763 35.6569 24.5625 34.929 24.5625 34.0742V33.9346C24.5371 33.0544 24.207 32.3857 23.5723 31.9287C23.2845 31.7087 22.9333 31.5394 22.5186 31.4209C21.6383 31.1839 20.7243 31.0146 19.7764 30.9131C18.8369 30.8031 17.9271 30.5365 17.0469 30.1133C16.2344 29.7324 15.6292 29.1781 15.2314 28.4502C14.8421 27.7139 14.6475 26.9225 14.6475 26.0762C14.6475 24.4258 15.2272 23.0716 16.3867 22.0137C17.5885 20.9049 19.0993 20.3506 20.9189 20.3506H21.3125C23.2676 20.4352 24.9772 20.9515 26.4414 21.8994L26.124 24.7051C26.0902 25.0098 25.904 25.1621 25.5654 25.1621H25.502C25.248 25.1452 25.0449 24.9717 24.8926 24.6416C24.554 23.9137 24.0589 23.3001 23.4072 22.8008C22.764 22.3014 22.0785 22.0348 21.3506 22.001H21.1602C20.4323 22.001 19.7933 22.1279 19.2432 22.3818C18.8792 22.568 18.5915 22.7712 18.3799 22.9912C18.1768 23.2113 17.9948 23.4821 17.834 23.8037C17.707 24.0661 17.6097 24.375 17.542 24.7305C17.4827 24.9928 17.4531 25.2383 17.4531 25.4668C17.4531 25.7715 17.4997 26.055 17.5928 26.3174C17.7536 26.8337 18.0286 27.2272 18.418 27.498C18.7057 27.7181 19.0231 27.8704 19.3701 27.9551C19.5817 28.0143 19.8356 28.0693 20.1318 28.1201C20.4281 28.1709 20.7412 28.2217 21.0713 28.2725C21.5537 28.3486 22.0658 28.429 22.6074 28.5137C23.1576 28.5983 23.695 28.7168 24.2197 28.8691C25.1253 29.1654 25.8024 29.5547 26.251 30.0371C26.5726 30.4095 26.8392 30.8158 27.0508 31.2559C27.2878 31.8398 27.4062 32.4788 27.4062 33.1729C27.4062 35.0518 26.6403 36.6175 25.1084 37.8701C24.3128 38.5218 23.4326 39.0042 22.4678 39.3174C21.6891 39.5628 20.8597 39.7025 19.9795 39.7363C19.7933 39.7448 19.6071 39.749 19.4209 39.749C18.2106 39.749 16.9961 39.5628 15.7773 39.1904L14.5332 35.7246C14.5078 35.6569 14.4951 35.5892 14.4951 35.5215C14.4951 35.3945 14.5374 35.2718 14.6221 35.1533C14.749 34.9502 14.9479 34.8486 15.2188 34.8486C15.4473 34.9079 15.6335 35.0856 15.7773 35.3818C16.2936 36.5075 16.9326 37.2523 17.6943 37.6162C18.3206 37.9209 19.1247 38.0732 20.1064 38.0732C20.318 38.0732 20.5381 38.0648 20.7666 38.0479ZM33.5381 37.1465C33.5381 37.5866 33.7497 37.8828 34.1729 38.0352C34.596 38.179 34.8076 38.4118 34.8076 38.7334C34.8076 39.0804 34.6172 39.2539 34.2363 39.2539H29.9326C29.5433 39.2539 29.3486 39.0804 29.3486 38.7334C29.3486 38.4118 29.556 38.179 29.9707 38.0352C30.3854 37.8828 30.5928 37.5866 30.5928 37.1465L30.6182 23.042C30.6182 22.6104 30.4066 22.3184 29.9834 22.166C29.5602 22.0137 29.3486 21.7725 29.3486 21.4424C29.3486 21.0954 29.5433 20.9219 29.9326 20.9219H37.4229C38.3369 20.9219 39.2933 21.0869 40.292 21.417C41.2992 21.7386 42.082 22.3776 42.6406 23.334C43.0638 24.0872 43.2754 24.9844 43.2754 26.0254C43.2585 27.0241 42.9707 27.9255 42.4121 28.7295C41.9212 29.4235 41.2272 29.9398 40.3301 30.2783C39.4329 30.6169 38.6162 30.7861 37.8799 30.7861H33.5381V37.1465ZM33.5381 22.4834V29.3896H36.166C36.7161 29.3896 37.2663 29.3135 37.8164 29.1611C38.375 29.0003 38.8532 28.721 39.251 28.3232C39.8773 27.7223 40.1904 26.9141 40.1904 25.8984C40.1904 24.9251 39.8646 24.1169 39.2129 23.4736C38.5273 22.8135 37.5964 22.4834 36.4199 22.4834H33.5381Z" fill="white"/>
</svg>
